<svg xmlns="http://www.w3.org/2000/svg" viewBox="0 0 15 15">
  <path fill="#ccc" d="M7.498 0c-.668 1.637-1.07 2.708-1.814 4.296a11.712 11.712 0 001.924 1.68c-.977-.401-1.643-.805-2.141-1.223C4.515 6.738 3.025 9.565 0 15c2.377-1.372 4.22-2.219 5.938-2.541a4.354 4.354 0 01-.113-1.019l.003-.076c.038-1.523.83-2.694 1.769-2.614.938.08 1.668 1.379 1.63 2.902-.007.287-.04.562-.096.818 1.699.332 3.522 1.176 5.867 2.53-.462-.851-.875-1.619-1.269-2.35-.62-.48-1.268-1.107-2.59-1.785.909.236 1.559.508 2.065.812C9.197 4.217 8.872 3.225 7.498 0z"/>
</svg>
